<svg xmlns="http://www.w3.org/2000/svg" viewBox="0 0 48 48" width="48" height="48"><defs><linearGradient id="b" x1="0" y1="0" x2="0" y2="1"><stop offset="0" stop-color="#6E93FF"/><stop offset="0.45" stop-color="#2F5BFF"/><stop offset="1" stop-color="#1735B8"/></linearGradient><linearGradient id="o" x1="0" y1="0" x2="0" y2="1"><stop offset="0" stop-color="#FFD27A"/><stop offset="0.5" stop-color="#FFA933"/><stop offset="1" stop-color="#E8742E"/></linearGradient></defs><ellipse cx="24" cy="44.5" rx="17" ry="2.2" fill="#0E1526" opacity=".13"/><path d="M26 16h13a6 6 0 0 1 6 6v8a6 6 0 0 1-6 6h-.5v5.5L32 36h-6a6 6 0 0 1-6-6v-8a6 6 0 0 1 6-6z" fill="url(#o)"/>
<path d="M23 17h14a4 4 0 0 1 4 4" fill="none" stroke="#fff" stroke-width="1.8" stroke-linecap="round" opacity=".45"/>
<path d="M10 5h18a7 7 0 0 1 7 7v9a7 7 0 0 1-7 7h-9l-8 7v-7h-1a7 7 0 0 1-7-7v-9a7 7 0 0 1 7-7z" fill="url(#b)"/>
<path d="M7 9.5Q8.5 7 11.5 7H26" fill="none" stroke="#fff" stroke-width="2" stroke-linecap="round" opacity=".4"/>
<circle cx="12" cy="16.5" r="2.4" fill="#fff"/><circle cx="19" cy="16.5" r="2.4" fill="#fff"/><circle cx="26" cy="16.5" r="2.4" fill="#fff"/></svg>
