<svg xmlns="http://www.w3.org/2000/svg" viewBox="0 0 160 80" width="160" height="80"><path d="M8 58 V36 q0-6 6-6 h16 l10 12 v16 z" fill="#0E1526"/><path d="M16 34 h12 l7 9 h-19 z" fill="#E6EBFF"/><rect x="44" y="20" width="108" height="4" rx="2" fill="#1F4FFF"/><rect x="44" y="40" width="108" height="4" rx="2" fill="#1F4FFF"/><rect x="44" y="52" width="108" height="6" rx="2" fill="#0E1526"/><path d="M48 22 v30 M148 22 v30" stroke="#1F4FFF" stroke-width="3"/><path d="M56 19 v-5 l7-7 h14 l7 7 v5 z" fill="#0E1526"/><circle cx="62" cy="20" r="3" fill="#0E1526"/><circle cx="62" cy="20" r="1.3" fill="#FFFFFF"/><circle cx="77" cy="20" r="3" fill="#0E1526"/><circle cx="77" cy="20" r="1.3" fill="#FFFFFF"/><path d="M110 19 v-5 l7-7 h14 l7 7 v5 z" fill="#0E1526"/><circle cx="116" cy="20" r="3" fill="#0E1526"/><circle cx="116" cy="20" r="1.3" fill="#FFFFFF"/><circle cx="131" cy="20" r="3" fill="#0E1526"/><circle cx="131" cy="20" r="1.3" fill="#FFFFFF"/><path d="M56 39 v-5 l7-7 h14 l7 7 v5 z" fill="#0E1526"/><circle cx="62" cy="40" r="3" fill="#0E1526"/><circle cx="62" cy="40" r="1.3" fill="#FFFFFF"/><circle cx="77" cy="40" r="3" fill="#0E1526"/><circle cx="77" cy="40" r="1.3" fill="#FFFFFF"/><path d="M110 39 v-5 l7-7 h14 l7 7 v5 z" fill="#0E1526"/><circle cx="116" cy="40" r="3" fill="#0E1526"/><circle cx="116" cy="40" r="1.3" fill="#FFFFFF"/><circle cx="131" cy="40" r="3" fill="#0E1526"/><circle cx="131" cy="40" r="1.3" fill="#FFFFFF"/><circle cx="22" cy="66" r="9" fill="#0E1526"/><circle cx="22" cy="66" r="3.5" fill="#FFFFFF"/><circle cx="96" cy="66" r="9" fill="#0E1526"/><circle cx="96" cy="66" r="3.5" fill="#FFFFFF"/><circle cx="118" cy="66" r="9" fill="#0E1526"/><circle cx="118" cy="66" r="3.5" fill="#FFFFFF"/><circle cx="140" cy="66" r="9" fill="#0E1526"/><circle cx="140" cy="66" r="3.5" fill="#FFFFFF"/></svg>