<svg xmlns="http://www.w3.org/2000/svg" viewBox="0 0 160 80" width="160" height="80"><path d="M8 58 V46 l10-14 h18 q6 0 6 6 v20 z" fill="#0E1526"/><path d="M14 44 l7-9 h12 v9 z" fill="#E6EBFF"/><rect x="44" y="18" width="108" height="3.5" rx="1.5" fill="#1F4FFF"/><rect x="44" y="38" width="108" height="3.5" rx="1.5" fill="#1F4FFF"/><rect x="44" y="52" width="108" height="6" rx="2" fill="#0E1526"/><path d="M47 21 v31 M149 21 v31" stroke="#1F4FFF" stroke-width="3"/><path d="M54 13 l3-4 l6-5 h10 l6 5 l3 4 v3 h-28 z" fill="#0E1526"/><path d="M59 9 l4-4 h8 l4 4 z" fill="#E6EBFF"/><circle cx="61" cy="16" r="2.8" fill="#0E1526"/><circle cx="61" cy="16" r="1.1" fill="#FFFFFF"/><circle cx="75" cy="16" r="2.8" fill="#0E1526"/><circle cx="75" cy="16" r="1.1" fill="#FFFFFF"/><path d="M104 13 l3-4 l6-5 h10 l6 5 l3 4 v3 h-28 z" fill="#0E1526"/><path d="M109 9 l4-4 h8 l4 4 z" fill="#E6EBFF"/><circle cx="111" cy="16" r="2.8" fill="#0E1526"/><circle cx="111" cy="16" r="1.1" fill="#FFFFFF"/><circle cx="125" cy="16" r="2.8" fill="#0E1526"/><circle cx="125" cy="16" r="1.1" fill="#FFFFFF"/><path d="M54 33 l3-4 l6-5 h10 l6 5 l3 4 v3 h-28 z" fill="#0E1526"/><path d="M59 29 l4-4 h8 l4 4 z" fill="#E6EBFF"/><circle cx="61" cy="36" r="2.8" fill="#0E1526"/><circle cx="61" cy="36" r="1.1" fill="#FFFFFF"/><circle cx="75" cy="36" r="2.8" fill="#0E1526"/><circle cx="75" cy="36" r="1.1" fill="#FFFFFF"/><path d="M104 33 l3-4 l6-5 h10 l6 5 l3 4 v3 h-28 z" fill="#0E1526"/><path d="M109 29 l4-4 h8 l4 4 z" fill="#E6EBFF"/><circle cx="111" cy="36" r="2.8" fill="#0E1526"/><circle cx="111" cy="36" r="1.1" fill="#FFFFFF"/><circle cx="125" cy="36" r="2.8" fill="#0E1526"/><circle cx="125" cy="36" r="1.1" fill="#FFFFFF"/><circle cx="22" cy="66" r="9" fill="#0E1526"/><circle cx="22" cy="66" r="3.5" fill="#FFFFFF"/><circle cx="96" cy="66" r="9" fill="#0E1526"/><circle cx="96" cy="66" r="3.5" fill="#FFFFFF"/><circle cx="118" cy="66" r="9" fill="#0E1526"/><circle cx="118" cy="66" r="3.5" fill="#FFFFFF"/><circle cx="140" cy="66" r="9" fill="#0E1526"/><circle cx="140" cy="66" r="3.5" fill="#FFFFFF"/></svg>